<svg xmlns="http://www.w3.org/2000/svg" xmlns:xlink="http://www.w3.org/1999/xlink" width="1080" zoomAndPan="magnify" viewBox="0 0 810 544.499984" height="726" preserveAspectRatio="xMidYMid meet" version="1.0"><path fill="#ffffff" d="M 29.257812 431.90625 L 18.832031 431.90625 C 18.734375 431.90625 18.703125 431.976562 18.703125 432.039062 L 18.703125 439.796875 C 18.703125 439.894531 18.734375 439.925781 18.832031 439.925781 L 25.683594 439.925781 C 25.914062 439.925781 26.042969 440.058594 26.042969 440.285156 L 26.042969 442.558594 C 26.042969 442.785156 25.914062 442.910156 25.683594 442.910156 L 18.832031 442.910156 C 18.734375 442.910156 18.703125 442.980469 18.703125 443.042969 L 18.703125 450.898438 C 18.703125 450.992188 18.734375 451.023438 18.832031 451.023438 L 29.257812 451.023438 C 29.484375 451.023438 29.613281 451.15625 29.613281 451.382812 L 29.613281 453.65625 C 29.613281 453.882812 29.484375 454.015625 29.257812 454.015625 L 15.617188 454.015625 C 15.390625 454.015625 15.261719 453.882812 15.261719 453.65625 L 15.261719 429.214844 C 15.261719 428.988281 15.390625 428.859375 15.617188 428.859375 L 29.257812 428.859375 C 29.484375 428.859375 29.613281 428.988281 29.613281 429.214844 L 29.613281 431.488281 C 29.613281 431.78125 29.484375 431.90625 29.257812 431.90625 Z M 29.257812 431.90625 " fill-opacity="1" fill-rule="nonzero"/><path fill="#ffffff" d="M 56.046875 428.921875 L 58.777344 428.921875 C 59.003906 428.921875 59.136719 429.054688 59.136719 429.28125 L 59.136719 453.71875 C 59.136719 453.945312 59.003906 454.078125 58.777344 454.078125 L 55.890625 454.078125 C 55.660156 454.078125 55.53125 453.976562 55.46875 453.820312 L 46.792969 436.390625 C 46.730469 436.355469 46.699219 436.324219 46.664062 436.324219 C 46.632812 436.324219 46.597656 436.355469 46.597656 436.421875 L 46.632812 453.6875 C 46.632812 453.914062 46.503906 454.046875 46.277344 454.046875 L 43.546875 454.046875 C 43.320312 454.046875 43.191406 453.914062 43.191406 453.6875 L 43.191406 429.25 C 43.191406 429.023438 43.320312 428.890625 43.546875 428.890625 L 46.4375 428.890625 C 46.664062 428.890625 46.792969 428.988281 46.859375 429.152344 L 55.5 446.582031 C 55.5625 446.644531 55.59375 446.644531 55.625 446.644531 C 55.660156 446.644531 55.695312 446.613281 55.695312 446.546875 L 55.695312 429.28125 C 55.695312 429.054688 55.820312 428.921875 56.046875 428.921875 Z M 56.046875 428.921875 " fill-opacity="1" fill-rule="nonzero"/><path fill="#ffffff" d="M 75.339844 452.359375 C 73.941406 451.023438 73.261719 449.273438 73.261719 447.097656 L 73.261719 435.902344 C 73.261719 433.726562 73.941406 431.976562 75.339844 430.644531 C 76.738281 429.3125 78.554688 428.664062 80.832031 428.664062 C 82.324219 428.664062 83.65625 428.957031 84.824219 429.539062 C 85.992188 430.125 86.871094 430.96875 87.488281 432.039062 C 88.136719 433.109375 88.425781 434.34375 88.425781 435.707031 L 88.425781 436.679688 C 88.425781 436.90625 88.300781 437.039062 88.074219 437.039062 L 85.34375 437.039062 C 85.117188 437.039062 84.984375 436.90625 84.984375 436.679688 L 84.984375 435.707031 C 84.984375 434.507812 84.59375 433.53125 83.851562 432.789062 C 83.101562 432.039062 82.097656 431.648438 80.832031 431.648438 C 79.597656 431.648438 78.589844 432.039062 77.8125 432.820312 C 77.03125 433.597656 76.671875 434.601562 76.671875 435.835938 L 76.671875 447.195312 C 76.671875 448.429688 77.0625 449.46875 77.84375 450.246094 C 78.621094 451.023438 79.628906 451.414062 80.925781 451.414062 C 82.160156 451.414062 83.167969 451.058594 83.914062 450.34375 C 84.664062 449.632812 85.019531 448.65625 85.019531 447.421875 L 85.019531 444.082031 C 85.019531 443.980469 84.984375 443.949219 84.890625 443.949219 L 81.121094 443.949219 C 80.894531 443.949219 80.765625 443.824219 80.765625 443.59375 L 80.765625 441.355469 C 80.765625 441.128906 80.894531 440.996094 81.121094 440.996094 L 88.136719 440.996094 C 88.363281 440.996094 88.496094 441.128906 88.496094 441.355469 L 88.496094 446.96875 C 88.496094 449.304688 87.8125 451.125 86.414062 452.421875 C 85.054688 453.75 83.199219 454.398438 80.863281 454.398438 C 78.554688 454.335938 76.703125 453.6875 75.339844 452.359375 Z M 75.339844 452.359375 " fill-opacity="1" fill-rule="nonzero"/><path fill="#ffffff" d="M 116.550781 431.90625 L 106.125 431.90625 C 106.03125 431.90625 106 431.976562 106 432.039062 L 106 439.796875 C 106 439.894531 106.03125 439.925781 106.125 439.925781 L 112.980469 439.925781 C 113.210938 439.925781 113.335938 440.058594 113.335938 440.285156 L 113.335938 442.558594 C 113.335938 442.785156 113.210938 442.910156 112.980469 442.910156 L 106.125 442.910156 C 106.03125 442.910156 106 442.980469 106 443.042969 L 106 450.898438 C 106 450.992188 106.03125 451.023438 106.125 451.023438 L 116.550781 451.023438 C 116.78125 451.023438 116.910156 451.15625 116.910156 451.382812 L 116.910156 453.65625 C 116.910156 453.882812 116.78125 454.015625 116.550781 454.015625 L 102.910156 454.015625 C 102.683594 454.015625 102.558594 453.882812 102.558594 453.65625 L 102.558594 429.214844 C 102.558594 428.988281 102.683594 428.859375 102.910156 428.859375 L 116.550781 428.859375 C 116.78125 428.859375 116.910156 428.988281 116.910156 429.214844 L 116.910156 431.488281 C 116.910156 431.78125 116.78125 431.90625 116.550781 431.90625 Z M 116.550781 431.90625 " fill-opacity="1" fill-rule="nonzero"/><path fill="#ffffff" d="M 143.34375 428.921875 L 146.074219 428.921875 C 146.300781 428.921875 146.433594 429.054688 146.433594 429.28125 L 146.433594 453.71875 C 146.433594 453.945312 146.300781 454.078125 146.074219 454.078125 L 143.183594 454.078125 C 142.957031 454.078125 142.828125 453.976562 142.761719 453.820312 L 134.089844 436.390625 C 134.023438 436.355469 133.992188 436.324219 133.960938 436.324219 C 133.929688 436.324219 133.894531 436.355469 133.894531 436.421875 L 133.929688 453.6875 C 133.929688 453.914062 133.796875 454.046875 133.570312 454.046875 L 130.84375 454.046875 C 130.613281 454.046875 130.484375 453.914062 130.484375 453.6875 L 130.484375 429.25 C 130.484375 429.023438 130.613281 428.890625 130.84375 428.890625 L 133.734375 428.890625 C 133.960938 428.890625 134.089844 428.988281 134.15625 429.152344 L 142.796875 446.582031 C 142.859375 446.644531 142.890625 446.644531 142.921875 446.644531 C 142.957031 446.644531 142.992188 446.613281 142.992188 446.546875 L 142.992188 429.28125 C 142.992188 429.054688 143.117188 428.921875 143.34375 428.921875 Z M 143.34375 428.921875 " fill-opacity="1" fill-rule="nonzero"/><path fill="#ffffff" d="M 173.03125 428.921875 L 175.757812 428.921875 C 175.984375 428.921875 176.113281 429.054688 176.113281 429.28125 L 176.113281 453.71875 C 176.113281 453.945312 175.984375 454.078125 175.757812 454.078125 L 173.03125 454.078125 C 172.800781 454.078125 172.671875 453.945312 172.671875 453.71875 L 172.671875 443.074219 C 172.671875 442.980469 172.640625 442.941406 172.542969 442.941406 L 164.71875 442.941406 C 164.617188 442.941406 164.585938 443.011719 164.585938 443.074219 L 164.585938 453.71875 C 164.585938 453.945312 164.453125 454.078125 164.226562 454.078125 L 161.5 454.078125 C 161.273438 454.078125 161.144531 453.945312 161.144531 453.71875 L 161.144531 429.28125 C 161.144531 429.054688 161.273438 428.921875 161.5 428.921875 L 164.226562 428.921875 C 164.453125 428.921875 164.585938 429.054688 164.585938 429.28125 L 164.585938 439.796875 C 164.585938 439.894531 164.617188 439.925781 164.71875 439.925781 L 172.542969 439.925781 C 172.640625 439.925781 172.671875 439.894531 172.671875 439.796875 L 172.671875 429.28125 C 172.671875 429.054688 172.800781 428.921875 173.03125 428.921875 Z M 173.03125 428.921875 " fill-opacity="1" fill-rule="nonzero"/><path fill="#ffffff" d="M 203.003906 453.75 L 201.933594 449.597656 C 201.902344 449.53125 201.835938 449.5 201.738281 449.5 L 193.78125 449.5 C 193.652344 449.5 193.585938 449.53125 193.585938 449.597656 L 192.546875 453.75 C 192.515625 453.976562 192.382812 454.078125 192.15625 454.078125 L 189.363281 454.078125 C 189.238281 454.078125 189.167969 454.046875 189.105469 453.976562 C 189.042969 453.914062 189.042969 453.820312 189.042969 453.6875 L 195.699219 429.28125 C 195.730469 429.054688 195.894531 428.957031 196.089844 428.957031 L 199.464844 428.957031 C 199.695312 428.957031 199.820312 429.054688 199.851562 429.28125 L 206.546875 453.6875 L 206.578125 453.785156 C 206.578125 453.976562 206.445312 454.078125 206.21875 454.078125 L 203.394531 454.078125 C 203.199219 454.046875 203.070312 453.945312 203.003906 453.75 Z M 194.398438 446.675781 C 194.429688 446.710938 194.464844 446.742188 194.527344 446.742188 L 201.023438 446.742188 C 201.085938 446.742188 201.121094 446.710938 201.152344 446.675781 C 201.1875 446.644531 201.1875 446.613281 201.1875 446.582031 L 197.839844 433.5625 C 197.808594 433.53125 197.777344 433.5 197.777344 433.5 C 197.742188 433.5 197.710938 433.53125 197.710938 433.5625 L 194.398438 446.582031 C 194.367188 446.613281 194.367188 446.644531 194.398438 446.675781 Z M 194.398438 446.675781 " fill-opacity="1" fill-rule="nonzero"/><path fill="#ffffff" d="M 231.226562 453.785156 L 227.070312 443.074219 C 227.035156 443.011719 227.003906 442.980469 226.941406 442.980469 L 223.074219 442.980469 C 222.976562 442.980469 222.945312 443.042969 222.945312 443.105469 L 222.945312 453.6875 C 222.945312 453.914062 222.816406 454.046875 222.585938 454.046875 L 219.828125 454.046875 C 219.601562 454.046875 219.46875 453.914062 219.46875 453.6875 L 219.46875 429.25 C 219.46875 429.023438 219.601562 428.890625 219.828125 428.890625 L 227.882812 428.890625 C 229.894531 428.890625 231.519531 429.539062 232.722656 430.871094 C 233.953125 432.203125 234.539062 433.921875 234.539062 436.03125 C 234.539062 437.621094 234.183594 439.019531 233.433594 440.152344 C 232.6875 441.289062 231.683594 442.097656 230.382812 442.519531 C 230.316406 442.558594 230.285156 442.621094 230.316406 442.714844 L 234.703125 453.59375 L 234.734375 453.71875 C 234.734375 453.914062 234.636719 454.015625 234.410156 454.015625 L 231.613281 454.015625 C 231.421875 454.046875 231.292969 453.976562 231.226562 453.785156 Z M 222.914062 432.039062 L 222.914062 440.089844 C 222.914062 440.183594 222.945312 440.21875 223.042969 440.21875 L 227.394531 440.21875 C 228.5 440.21875 229.375 439.828125 230.058594 439.082031 C 230.738281 438.335938 231.097656 437.328125 231.097656 436.097656 C 231.097656 434.828125 230.773438 433.828125 230.089844 433.046875 C 229.40625 432.265625 228.53125 431.90625 227.394531 431.90625 L 223.074219 431.90625 C 222.976562 431.90625 222.914062 431.945312 222.914062 432.039062 Z M 222.914062 432.039062 " fill-opacity="1" fill-rule="nonzero"/><path fill="#ffffff" d="M 248.113281 453.6875 L 248.113281 429.25 C 248.113281 429.023438 248.246094 428.890625 248.472656 428.890625 L 251.199219 428.890625 C 251.429688 428.890625 251.554688 429.023438 251.554688 429.25 L 251.554688 453.6875 C 251.554688 453.914062 251.429688 454.046875 251.199219 454.046875 L 248.472656 454.046875 C 248.246094 454.046875 248.113281 453.945312 248.113281 453.6875 Z M 248.113281 453.6875 " fill-opacity="1" fill-rule="nonzero"/><path fill="#ffffff" d="M 278.414062 453.75 L 277.34375 449.597656 C 277.308594 449.53125 277.246094 449.5 277.148438 449.5 L 269.191406 449.5 C 269.058594 449.5 268.996094 449.53125 268.996094 449.597656 L 267.957031 453.75 C 267.925781 453.976562 267.792969 454.078125 267.566406 454.078125 L 264.773438 454.078125 C 264.644531 454.078125 264.578125 454.046875 264.515625 453.976562 C 264.449219 453.914062 264.449219 453.820312 264.449219 453.6875 L 271.109375 429.28125 C 271.140625 429.054688 271.304688 428.957031 271.496094 428.957031 L 274.871094 428.957031 C 275.101562 428.957031 275.230469 429.054688 275.261719 429.28125 L 281.953125 453.6875 L 281.988281 453.785156 C 281.988281 453.976562 281.855469 454.078125 281.628906 454.078125 L 278.804688 454.078125 C 278.578125 454.046875 278.445312 453.945312 278.414062 453.75 Z M 269.808594 446.675781 C 269.839844 446.710938 269.871094 446.742188 269.9375 446.742188 L 276.433594 446.742188 C 276.496094 446.742188 276.53125 446.710938 276.5625 446.675781 C 276.597656 446.644531 276.597656 446.613281 276.597656 446.582031 L 273.25 433.5625 C 273.21875 433.53125 273.1875 433.5 273.1875 433.5 C 273.152344 433.5 273.121094 433.53125 273.121094 433.5625 L 269.808594 446.582031 C 269.777344 446.613281 269.777344 446.644531 269.808594 446.675781 Z M 269.808594 446.675781 " fill-opacity="1" fill-rule="nonzero"/><path fill="#ffffff" d="M 325.566406 431.90625 L 315.144531 431.90625 C 315.046875 431.90625 315.015625 431.976562 315.015625 432.039062 L 315.015625 439.796875 C 315.015625 439.894531 315.046875 439.925781 315.144531 439.925781 L 322 439.925781 C 322.226562 439.925781 322.351562 440.058594 322.351562 440.285156 L 322.351562 442.558594 C 322.351562 442.785156 322.226562 442.910156 322 442.910156 L 315.144531 442.910156 C 315.046875 442.910156 315.015625 442.980469 315.015625 443.042969 L 315.015625 450.898438 C 315.015625 450.992188 315.046875 451.023438 315.144531 451.023438 L 325.566406 451.023438 C 325.796875 451.023438 325.925781 451.15625 325.925781 451.382812 L 325.925781 453.65625 C 325.925781 453.882812 325.796875 454.015625 325.566406 454.015625 L 311.929688 454.015625 C 311.699219 454.015625 311.574219 453.882812 311.574219 453.65625 L 311.574219 429.214844 C 311.574219 428.988281 311.699219 428.859375 311.929688 428.859375 L 325.566406 428.859375 C 325.796875 428.859375 325.925781 428.988281 325.925781 429.214844 L 325.925781 431.488281 C 325.925781 431.78125 325.796875 431.90625 325.566406 431.90625 Z M 325.566406 431.90625 " fill-opacity="1" fill-rule="nonzero"/><path fill="#ffffff" d="M 368.40625 453.75 L 367.335938 449.597656 C 367.300781 449.53125 367.234375 449.5 367.140625 449.5 L 359.179688 449.5 C 359.054688 449.5 358.984375 449.53125 358.984375 449.597656 L 357.945312 453.75 C 357.914062 453.976562 357.785156 454.078125 357.558594 454.078125 L 354.765625 454.078125 C 354.636719 454.078125 354.570312 454.046875 354.503906 453.976562 C 354.441406 453.914062 354.441406 453.820312 354.441406 453.6875 L 361.097656 429.28125 C 361.128906 429.054688 361.292969 428.957031 361.488281 428.957031 L 364.867188 428.957031 C 365.09375 428.957031 365.222656 429.054688 365.257812 429.28125 L 371.945312 453.6875 L 371.976562 453.785156 C 371.976562 453.976562 371.847656 454.078125 371.621094 454.078125 L 368.792969 454.078125 C 368.566406 454.046875 368.4375 453.945312 368.40625 453.75 Z M 359.796875 446.675781 C 359.832031 446.710938 359.863281 446.742188 359.929688 446.742188 L 366.421875 446.742188 C 366.492188 446.742188 366.523438 446.710938 366.554688 446.675781 C 366.585938 446.644531 366.585938 446.613281 366.585938 446.582031 L 363.242188 433.5625 C 363.207031 433.53125 363.175781 433.5 363.175781 433.5 C 363.144531 433.5 363.113281 433.53125 363.113281 433.5625 L 359.796875 446.582031 C 359.734375 446.613281 359.765625 446.644531 359.796875 446.675781 Z M 359.796875 446.675781 " fill-opacity="1" fill-rule="nonzero"/><path fill="#ffffff" d="M 398.871094 431.90625 L 388.445312 431.90625 C 388.34375 431.90625 388.3125 431.976562 388.3125 432.039062 L 388.3125 439.796875 C 388.3125 439.894531 388.34375 439.925781 388.445312 439.925781 L 395.296875 439.925781 C 395.523438 439.925781 395.652344 440.058594 395.652344 440.285156 L 395.652344 442.558594 C 395.652344 442.785156 395.523438 442.910156 395.296875 442.910156 L 388.445312 442.910156 C 388.34375 442.910156 388.3125 442.980469 388.3125 443.042969 L 388.3125 450.898438 C 388.3125 450.992188 388.34375 451.023438 388.445312 451.023438 L 398.871094 451.023438 C 399.097656 451.023438 399.222656 451.15625 399.222656 451.382812 L 399.222656 453.65625 C 399.222656 453.882812 399.097656 454.015625 398.871094 454.015625 L 385.230469 454.015625 C 385 454.015625 384.871094 453.882812 384.871094 453.65625 L 384.871094 429.214844 C 384.871094 428.988281 385 428.859375 385.230469 428.859375 L 398.871094 428.859375 C 399.097656 428.859375 399.222656 428.988281 399.222656 429.214844 L 399.222656 431.488281 C 399.222656 431.78125 399.128906 431.90625 398.871094 431.90625 Z M 398.871094 431.90625 " fill-opacity="1" fill-rule="nonzero"/><path fill="#ffffff" d="M 424.621094 453.785156 L 420.464844 443.074219 C 420.433594 443.011719 420.402344 442.980469 420.332031 442.980469 L 416.5 442.980469 C 416.40625 442.980469 416.375 443.042969 416.375 443.105469 L 416.375 453.6875 C 416.375 453.914062 416.242188 454.046875 416.015625 454.046875 L 413.285156 454.046875 C 413.058594 454.046875 412.933594 453.914062 412.933594 453.6875 L 412.933594 429.25 C 412.933594 429.023438 413.058594 428.890625 413.285156 428.890625 L 421.339844 428.890625 C 423.351562 428.890625 424.976562 429.539062 426.179688 430.871094 C 427.417969 432.203125 428 433.921875 428 436.03125 C 428 437.621094 427.644531 439.019531 426.894531 440.152344 C 426.148438 441.289062 425.140625 442.097656 423.84375 442.519531 C 423.777344 442.558594 423.742188 442.621094 423.777344 442.714844 L 428.160156 453.59375 L 428.191406 453.71875 C 428.191406 453.914062 428.097656 454.015625 427.871094 454.015625 L 425.078125 454.015625 C 424.816406 454.046875 424.6875 453.976562 424.621094 453.785156 Z M 416.304688 432.039062 L 416.304688 440.089844 C 416.304688 440.183594 416.34375 440.21875 416.4375 440.21875 L 420.789062 440.21875 C 421.894531 440.21875 422.769531 439.828125 423.453125 439.082031 C 424.132812 438.335938 424.492188 437.328125 424.492188 436.097656 C 424.492188 434.828125 424.164062 433.828125 423.484375 433.046875 C 422.804688 432.265625 421.925781 431.90625 420.789062 431.90625 L 416.4375 431.90625 C 416.34375 431.90625 416.304688 431.945312 416.304688 432.039062 Z M 416.304688 432.039062 " fill-opacity="1" fill-rule="nonzero"/><path fill="#ffffff" d="M 444.5625 453.429688 C 443.394531 452.78125 442.484375 451.902344 441.832031 450.765625 C 441.183594 449.632812 440.859375 448.300781 440.859375 446.773438 L 440.859375 436.226562 C 440.859375 434.734375 441.183594 433.4375 441.832031 432.265625 C 442.484375 431.097656 443.394531 430.222656 444.5625 429.605469 C 445.734375 428.957031 447.0625 428.664062 448.589844 428.664062 C 450.113281 428.664062 451.480469 428.988281 452.648438 429.605469 C 453.816406 430.253906 454.726562 431.132812 455.378906 432.265625 C 456.027344 433.40625 456.347656 434.734375 456.347656 436.226562 L 456.347656 446.773438 C 456.347656 448.265625 456.027344 449.597656 455.378906 450.765625 C 454.726562 451.902344 453.820312 452.8125 452.648438 453.429688 C 451.480469 454.078125 450.113281 454.367188 448.589844 454.367188 C 447.0625 454.367188 445.734375 454.078125 444.5625 453.429688 Z M 451.738281 450.148438 C 452.515625 449.339844 452.941406 448.265625 452.941406 446.902344 L 452.941406 436.128906 C 452.941406 434.796875 452.550781 433.695312 451.738281 432.851562 C 450.960938 432.007812 449.917969 431.585938 448.621094 431.585938 C 447.355469 431.585938 446.316406 432.007812 445.539062 432.851562 C 444.757812 433.695312 444.335938 434.765625 444.335938 436.128906 L 444.335938 446.902344 C 444.335938 448.234375 444.726562 449.304688 445.539062 450.117188 C 446.316406 450.929688 447.355469 451.351562 448.621094 451.351562 C 449.917969 451.351562 450.960938 450.960938 451.738281 450.148438 Z M 451.738281 450.148438 " fill-opacity="1" fill-rule="nonzero"/><path fill="#ffffff" d="M 470.480469 453.6875 L 470.480469 429.25 C 470.480469 429.023438 470.605469 428.890625 470.832031 428.890625 L 473.5625 428.890625 C 473.789062 428.890625 473.921875 429.023438 473.921875 429.25 L 473.921875 450.898438 C 473.921875 450.992188 473.953125 451.023438 474.046875 451.023438 L 484.246094 451.023438 C 484.472656 451.023438 484.605469 451.15625 484.605469 451.382812 L 484.605469 453.65625 C 484.605469 453.882812 484.472656 454.011719 484.246094 454.011719 L 470.800781 454.011719 C 470.574219 454.046875 470.480469 453.945312 470.480469 453.6875 Z M 470.480469 453.6875 " fill-opacity="1" fill-rule="nonzero"/><path fill="#ffffff" d="M 511.496094 431.90625 L 501.070312 431.90625 C 500.972656 431.90625 500.941406 431.976562 500.941406 432.039062 L 500.941406 439.796875 C 500.941406 439.894531 500.972656 439.925781 501.070312 439.925781 L 507.921875 439.925781 C 508.148438 439.925781 508.28125 440.058594 508.28125 440.285156 L 508.28125 442.558594 C 508.28125 442.785156 508.148438 442.910156 507.921875 442.910156 L 501.070312 442.910156 C 500.972656 442.910156 500.941406 442.980469 500.941406 443.042969 L 500.941406 450.898438 C 500.941406 450.992188 500.972656 451.023438 501.070312 451.023438 L 511.496094 451.023438 C 511.722656 451.023438 511.851562 451.15625 511.851562 451.382812 L 511.851562 453.65625 C 511.851562 453.882812 511.722656 454.015625 511.496094 454.015625 L 497.855469 454.015625 C 497.628906 454.015625 497.496094 453.882812 497.496094 453.65625 L 497.496094 429.214844 C 497.496094 428.988281 497.628906 428.859375 497.855469 428.859375 L 511.496094 428.859375 C 511.722656 428.859375 511.851562 428.988281 511.851562 429.214844 L 511.851562 431.488281 C 511.851562 431.78125 511.753906 431.90625 511.496094 431.90625 Z M 511.496094 431.90625 " fill-opacity="1" fill-rule="nonzero"/><path fill="#ffffff" d="M 530.6875 453.75 L 524.257812 429.3125 L 524.226562 429.214844 C 524.226562 429.023438 524.355469 428.921875 524.585938 428.921875 L 527.535156 428.921875 C 527.765625 428.921875 527.894531 429.023438 527.925781 429.25 L 532.605469 448.496094 C 532.636719 448.558594 532.636719 448.59375 532.671875 448.59375 C 532.703125 448.59375 532.703125 448.558594 532.734375 448.496094 L 537.410156 429.25 C 537.476562 429.023438 537.605469 428.921875 537.800781 428.921875 L 540.625 428.921875 C 540.753906 428.921875 540.820312 428.957031 540.886719 429.023438 C 540.949219 429.085938 540.949219 429.183594 540.949219 429.3125 L 534.457031 453.75 C 534.390625 453.976562 534.261719 454.078125 534.066406 454.078125 L 531.078125 454.078125 C 530.882812 454.046875 530.753906 453.945312 530.6875 453.75 Z M 530.6875 453.75 " fill-opacity="1" fill-rule="nonzero"/><path fill="#ffffff" d="M 563.589844 453.75 L 562.515625 449.597656 C 562.480469 449.53125 562.417969 449.5 562.320312 449.5 L 554.363281 449.5 C 554.234375 449.5 554.167969 449.53125 554.167969 449.597656 L 553.132812 453.75 C 553.09375 453.976562 552.96875 454.078125 552.742188 454.078125 L 549.949219 454.078125 C 549.816406 454.078125 549.753906 454.046875 549.683594 453.976562 C 549.621094 453.914062 549.621094 453.820312 549.621094 453.6875 L 556.277344 429.28125 C 556.308594 429.054688 556.472656 428.957031 556.667969 428.957031 L 560.046875 428.957031 C 560.273438 428.957031 560.40625 429.054688 560.4375 429.28125 L 567.125 453.6875 L 567.15625 453.785156 C 567.15625 453.976562 567.03125 454.078125 566.804688 454.078125 L 563.976562 454.078125 C 563.746094 454.046875 563.621094 453.945312 563.589844 453.75 Z M 554.980469 446.675781 C 555.011719 446.710938 555.046875 446.742188 555.109375 446.742188 L 561.605469 446.742188 C 561.671875 446.742188 561.703125 446.710938 561.734375 446.675781 C 561.769531 446.644531 561.769531 446.613281 561.769531 446.582031 L 558.421875 433.5625 C 558.390625 433.53125 558.359375 433.5 558.359375 433.5 C 558.324219 433.5 558.292969 433.53125 558.292969 433.5625 L 554.980469 446.582031 C 554.914062 446.613281 554.949219 446.644531 554.980469 446.675781 Z M 554.980469 446.675781 " fill-opacity="1" fill-rule="nonzero"/><path fill="#ffffff" d="M 592.878906 428.921875 L 595.609375 428.921875 C 595.835938 428.921875 595.964844 429.054688 595.964844 429.28125 L 595.964844 453.71875 C 595.964844 453.945312 595.835938 454.078125 595.609375 454.078125 L 592.714844 454.078125 C 592.488281 454.078125 592.363281 453.976562 592.292969 453.820312 L 583.625 436.390625 C 583.558594 436.355469 583.527344 436.324219 583.496094 436.324219 C 583.460938 436.324219 583.429688 436.355469 583.429688 436.421875 L 583.460938 453.6875 C 583.460938 453.914062 583.332031 454.046875 583.105469 454.046875 L 580.378906 454.046875 C 580.148438 454.046875 580.019531 453.914062 580.019531 453.6875 L 580.019531 429.25 C 580.019531 429.023438 580.148438 428.890625 580.378906 428.890625 L 583.265625 428.890625 C 583.496094 428.890625 583.625 428.988281 583.6875 429.152344 L 592.328125 446.582031 C 592.394531 446.644531 592.425781 446.644531 592.457031 446.644531 C 592.488281 446.644531 592.523438 446.613281 592.523438 446.546875 L 592.523438 429.28125 C 592.488281 429.054688 592.621094 428.921875 592.878906 428.921875 Z M 592.878906 428.921875 " fill-opacity="1" fill-rule="nonzero"/><path fill="#ffffff" d="M 625.03125 429.28125 L 625.03125 431.585938 C 625.03125 431.8125 624.902344 431.945312 624.671875 431.945312 L 618.894531 431.945312 C 618.796875 431.945312 618.765625 432.007812 618.765625 432.070312 L 618.765625 453.6875 C 618.765625 453.914062 618.632812 454.046875 618.40625 454.046875 L 615.679688 454.046875 C 615.449219 454.046875 615.324219 453.914062 615.324219 453.6875 L 615.324219 432.070312 C 615.324219 431.976562 615.253906 431.945312 615.191406 431.945312 L 609.671875 431.945312 C 609.441406 431.945312 609.3125 431.8125 609.3125 431.585938 L 609.3125 429.28125 C 609.3125 429.054688 609.441406 428.921875 609.671875 428.921875 L 624.742188 428.921875 C 624.898438 428.921875 625.03125 429.054688 625.03125 429.28125 Z M 625.03125 429.28125 " fill-opacity="1" fill-rule="nonzero"/><path fill="#ffffff" d="M 648.707031 453.75 L 647.632812 449.597656 C 647.601562 449.53125 647.539062 449.5 647.4375 449.5 L 639.484375 449.5 C 639.351562 449.5 639.289062 449.53125 639.289062 449.597656 L 638.25 453.75 C 638.21875 453.976562 638.085938 454.078125 637.859375 454.078125 L 635.066406 454.078125 C 634.9375 454.078125 634.871094 454.046875 634.808594 453.976562 C 634.742188 453.914062 634.742188 453.820312 634.742188 453.6875 L 641.398438 429.28125 C 641.433594 429.054688 641.59375 428.957031 641.789062 428.957031 L 645.167969 428.957031 C 645.394531 428.957031 645.523438 429.054688 645.554688 429.28125 L 652.246094 453.6875 L 652.277344 453.785156 C 652.277344 453.976562 652.148438 454.078125 651.921875 454.078125 L 649.097656 454.078125 C 648.902344 454.046875 648.773438 453.945312 648.707031 453.75 Z M 640.101562 446.675781 C 640.132812 446.710938 640.164062 446.742188 640.230469 446.742188 L 646.726562 446.742188 C 646.789062 446.742188 646.820312 446.710938 646.855469 446.675781 C 646.890625 446.644531 646.890625 446.613281 646.890625 446.582031 L 643.542969 433.5625 C 643.511719 433.53125 643.480469 433.5 643.480469 433.5 C 643.445312 433.5 643.410156 433.53125 643.410156 433.5625 L 640.101562 446.582031 C 640.070312 446.613281 640.070312 446.644531 640.101562 446.675781 Z M 640.101562 446.675781 " fill-opacity="1" fill-rule="nonzero"/><path fill="#ffffff" d="M 679.332031 428.921875 L 682.058594 428.921875 C 682.289062 428.921875 682.414062 429.054688 682.414062 429.28125 L 682.414062 453.71875 C 682.414062 453.945312 682.289062 454.078125 682.058594 454.078125 L 679.332031 454.078125 C 679.105469 454.078125 678.972656 453.945312 678.972656 453.71875 L 678.972656 435.609375 C 678.972656 435.546875 678.941406 435.511719 678.910156 435.480469 C 678.878906 435.480469 678.8125 435.511719 678.8125 435.578125 L 674.523438 442.652344 C 674.394531 442.816406 674.265625 442.910156 674.101562 442.910156 L 673.519531 442.910156 C 673.355469 442.910156 673.191406 442.816406 673.097656 442.652344 L 668.777344 435.640625 C 668.742188 435.578125 668.710938 435.546875 668.679688 435.546875 C 668.617188 435.546875 668.617188 435.609375 668.617188 435.675781 L 668.617188 453.71875 C 668.617188 453.945312 668.484375 454.078125 668.257812 454.078125 L 665.527344 454.078125 C 665.300781 454.078125 665.171875 453.945312 665.171875 453.71875 L 665.171875 429.28125 C 665.171875 429.054688 665.300781 428.921875 665.527344 428.921875 L 668.257812 428.921875 C 668.421875 428.921875 668.582031 429.023438 668.679688 429.183594 L 673.714844 437.296875 C 673.746094 437.328125 673.777344 437.328125 673.808594 437.328125 C 673.84375 437.328125 673.90625 437.328125 673.90625 437.296875 L 678.910156 429.183594 C 679.003906 428.988281 679.167969 428.921875 679.332031 428.921875 Z M 679.332031 428.921875 " fill-opacity="1" fill-rule="nonzero"/><path fill="#ffffff" d="M 711.0625 431.90625 L 700.636719 431.90625 C 700.535156 431.90625 700.503906 431.976562 700.503906 432.039062 L 700.503906 439.796875 C 700.503906 439.894531 700.539062 439.925781 700.636719 439.925781 L 707.488281 439.925781 C 707.714844 439.925781 707.847656 440.058594 707.847656 440.285156 L 707.847656 442.558594 C 707.847656 442.785156 707.714844 442.910156 707.488281 442.910156 L 700.636719 442.910156 C 700.535156 442.910156 700.503906 442.980469 700.503906 443.042969 L 700.503906 450.898438 C 700.503906 450.992188 700.539062 451.023438 700.636719 451.023438 L 711.0625 451.023438 C 711.289062 451.023438 711.417969 451.15625 711.417969 451.382812 L 711.417969 453.65625 C 711.417969 453.882812 711.289062 454.015625 711.0625 454.015625 L 697.421875 454.015625 C 697.195312 454.015625 697.0625 453.882812 697.0625 453.65625 L 697.0625 429.214844 C 697.0625 428.988281 697.195312 428.859375 697.421875 428.859375 L 711.0625 428.859375 C 711.289062 428.859375 711.417969 428.988281 711.417969 429.214844 L 711.417969 431.488281 C 711.417969 431.78125 711.289062 431.90625 711.0625 431.90625 Z M 711.0625 431.90625 " fill-opacity="1" fill-rule="nonzero"/><path fill="#ffffff" d="M 737.886719 428.921875 L 740.617188 428.921875 C 740.84375 428.921875 740.96875 429.054688 740.96875 429.28125 L 740.96875 453.71875 C 740.96875 453.945312 740.84375 454.078125 740.617188 454.078125 L 737.722656 454.078125 C 737.496094 454.078125 737.363281 453.976562 737.300781 453.820312 L 728.628906 436.390625 C 728.566406 436.355469 728.535156 436.324219 728.5 436.324219 C 728.46875 436.324219 728.4375 436.355469 728.4375 436.421875 L 728.46875 453.6875 C 728.46875 453.914062 728.339844 454.046875 728.109375 454.046875 L 725.382812 454.046875 C 725.15625 454.046875 725.027344 453.914062 725.027344 453.6875 L 725.027344 429.25 C 725.027344 429.023438 725.15625 428.890625 725.382812 428.890625 L 728.273438 428.890625 C 728.5 428.890625 728.628906 428.988281 728.695312 429.152344 L 737.332031 446.582031 C 737.402344 446.644531 737.433594 446.644531 737.464844 446.644531 C 737.496094 446.644531 737.527344 446.613281 737.527344 446.546875 L 737.527344 429.28125 C 737.527344 429.054688 737.628906 428.921875 737.886719 428.921875 Z M 737.886719 428.921875 " fill-opacity="1" fill-rule="nonzero"/><path fill="#ffffff" d="M 770.039062 429.28125 L 770.039062 431.585938 C 770.039062 431.8125 769.90625 431.945312 769.679688 431.945312 L 763.898438 431.945312 C 763.800781 431.945312 763.769531 432.007812 763.769531 432.070312 L 763.769531 453.6875 C 763.769531 453.914062 763.640625 454.046875 763.414062 454.046875 L 760.683594 454.046875 C 760.457031 454.046875 760.328125 453.914062 760.328125 453.6875 L 760.328125 432.070312 C 760.328125 431.976562 760.261719 431.945312 760.199219 431.945312 L 754.675781 431.945312 C 754.449219 431.945312 754.320312 431.8125 754.320312 431.585938 L 754.320312 429.28125 C 754.320312 429.054688 754.449219 428.921875 754.675781 428.921875 L 769.742188 428.921875 C 769.90625 428.921875 770.039062 429.054688 770.039062 429.28125 Z M 770.039062 429.28125 " fill-opacity="1" fill-rule="nonzero"/><path fill="#ffffff" d="M 785.171875 453.429688 C 784 452.78125 783.09375 451.902344 782.445312 450.765625 C 781.792969 449.632812 781.46875 448.300781 781.46875 446.773438 L 781.46875 436.226562 C 781.46875 434.734375 781.792969 433.4375 782.445312 432.265625 C 783.09375 431.132812 784 430.222656 785.171875 429.605469 C 786.339844 428.957031 787.671875 428.664062 789.199219 428.664062 C 790.726562 428.664062 792.085938 428.988281 793.257812 429.605469 C 794.425781 430.253906 795.339844 431.132812 795.988281 432.265625 C 796.636719 433.40625 796.960938 434.734375 796.960938 436.226562 L 796.960938 446.773438 C 796.960938 448.265625 796.636719 449.597656 795.988281 450.765625 C 795.339844 451.902344 794.425781 452.8125 793.257812 453.429688 C 792.085938 454.078125 790.726562 454.367188 789.199219 454.367188 C 787.707031 454.367188 786.339844 454.078125 785.171875 453.429688 Z M 792.347656 450.148438 C 793.128906 449.339844 793.550781 448.265625 793.550781 446.902344 L 793.550781 436.128906 C 793.550781 434.796875 793.160156 433.695312 792.347656 432.851562 C 791.570312 432.007812 790.53125 431.585938 789.230469 431.585938 C 787.964844 431.585938 786.925781 432.007812 786.144531 432.851562 C 785.367188 433.695312 784.945312 434.765625 784.945312 436.128906 L 784.945312 446.902344 C 784.945312 448.234375 785.332031 449.304688 786.144531 450.117188 C 786.925781 450.929688 787.964844 451.351562 789.230469 451.351562 C 790.53125 451.351562 791.570312 450.960938 792.347656 450.148438 Z M 792.347656 450.148438 " fill-opacity="1" fill-rule="nonzero"/><path fill="#00b3dc" d="M 363.011719 89.375 L 371.71875 89.375 L 390.164062 57.535156 L 485.773438 57.535156 L 462.519531 97 L 326.183594 97 L 307.671875 128.773438 L 484.472656 128.773438 L 495.96875 148.445312 L 484.472656 168.175781 L 307.773438 168.175781 L 326.183594 199.886719 L 462.519531 199.886719 L 485.773438 239.316406 L 390.164062 239.316406 L 371.71875 207.511719 L 363.011719 207.511719 L 385.910156 246.8125 L 498.636719 246.8125 L 466.875 192.386719 L 330.507812 192.386719 L 320.828125 175.640625 L 488.796875 175.640625 L 504.546875 148.445312 L 488.796875 121.277344 L 320.730469 121.277344 L 330.476562 104.46875 L 466.875 104.46875 L 498.636719 50.035156 L 385.910156 50.035156 Z M 363.011719 89.375 " fill-opacity="1" fill-rule="nonzero"/><path fill="#ffffff" d="M 482.398438 164.570312 L 491.816406 148.476562 L 482.429688 132.410156 L 346.550781 132.410156 L 337.164062 148.445312 L 346.582031 164.570312 Z M 482.398438 164.570312 " fill-opacity="1" fill-rule="nonzero"/><path fill="#ffffff" d="M 208.007812 312.375 L 208.007812 367.09375 L 187.511719 367.09375 L 187.511719 314.453125 C 187.511719 301.339844 182.871094 295.886719 168.9375 295.886719 C 156.304688 295.886719 147.632812 301.957031 141.722656 311.242188 L 141.722656 367.09375 L 121.230469 367.09375 L 121.230469 279.109375 L 138.214844 279.109375 L 140.78125 291.28125 C 149.257812 281.183594 159.519531 277.519531 173.613281 277.519531 C 195.339844 277.488281 208.007812 287.09375 208.007812 312.375 Z M 208.007812 312.375 " fill-opacity="1" fill-rule="nonzero"/><path fill="#ffffff" d="M 316.378906 277.808594 L 316.378906 361.773438 C 316.378906 388.160156 300.203125 400.816406 268.511719 400.816406 L 239.996094 400.816406 L 237.265625 383.386719 L 268.476562 383.386719 C 286.890625 383.386719 295.855469 376.671875 295.855469 361.773438 L 295.855469 350.933594 C 286.726562 359.566406 275.035156 362.128906 262.078125 362.128906 C 237.589844 362.128906 225.25 347.265625 225.25 319.582031 C 225.25 292.871094 239.667969 277.488281 265.75 277.488281 C 278.867188 277.488281 289.621094 279.722656 299.199219 283.71875 L 304.492188 277.808594 Z M 295.886719 331.394531 L 295.886719 299.71875 C 288.027344 296.667969 280.039062 295.238281 270.261719 295.238281 C 254.253906 295.238281 246.230469 304.035156 246.230469 319.550781 C 246.230469 335.550781 251.6875 344.34375 268.636719 344.34375 C 279.875 344.378906 289.652344 339.738281 295.886719 331.394531 Z M 295.886719 331.394531 " fill-opacity="1" fill-rule="nonzero"/><path fill="#ffffff" d="M 583.105469 312.375 L 583.105469 367.09375 L 562.613281 367.09375 L 562.613281 314.453125 C 562.613281 301.339844 557.96875 295.886719 545.625 295.886719 C 534.910156 295.886719 527.863281 301.503906 522.246094 309.976562 L 522.246094 367.09375 L 501.75 367.09375 L 501.75 314.453125 C 501.75 301.339844 497.109375 295.886719 484.769531 295.886719 C 473.5625 295.886719 466.351562 301.957031 460.605469 311.242188 L 460.605469 367.09375 L 440.113281 367.09375 L 440.113281 279.109375 L 457.097656 279.109375 L 459.664062 291.28125 C 467.8125 281.183594 477.261719 277.519531 490.09375 277.519531 C 503.210938 277.519531 512.824219 282.644531 517.960938 291.929688 C 526.597656 281.058594 537.019531 277.519531 550.953125 277.519531 C 571.253906 277.488281 583.105469 287.09375 583.105469 312.375 Z M 583.105469 312.375 " fill-opacity="1" fill-rule="nonzero"/><path fill="#ffffff" d="M 683.648438 314.777344 L 683.648438 367.09375 L 666.667969 367.09375 L 663.9375 353.496094 C 655.949219 362.941406 644.714844 368.6875 627.109375 368.6875 C 607.589844 368.6875 598.140625 360.832031 598.140625 343.730469 C 598.140625 326.460938 608.695312 320.363281 629.191406 318.121094 L 663.125 314.289062 L 663.125 312.539062 C 663.125 300.042969 656.890625 296.535156 643.285156 296.535156 L 606.457031 296.535156 L 609.183594 279.109375 L 644.417969 279.109375 C 672.285156 279.074219 683.648438 289.007812 683.648438 314.777344 Z M 663.160156 337.011719 L 663.160156 328.054688 L 635.132812 331.589844 C 623.601562 333.015625 619.121094 335.582031 619.121094 342.464844 C 619.121094 349.828125 622.792969 353.171875 632.726562 353.171875 C 646.011719 353.171875 656.109375 347.71875 663.160156 337.011719 Z M 663.160156 337.011719 " fill-opacity="1" fill-rule="nonzero"/><path fill="#ffffff" d="M 796.992188 323.898438 C 796.992188 353.820312 783.710938 368.6875 748.3125 368.6875 C 739.835938 368.6875 732.789062 367.582031 725.902344 365.472656 L 725.902344 400.816406 L 705.410156 400.816406 L 705.410156 279.074219 L 722.394531 279.074219 L 725.125 292.1875 C 733.601562 281.933594 744.347656 277.453125 758.574219 277.453125 C 783.222656 277.488281 796.992188 293.324219 796.992188 323.898438 Z M 776.015625 323.410156 C 776.015625 305.65625 769.617188 295.726562 752.308594 295.726562 C 739.964844 295.726562 731.8125 303.09375 725.902344 312.214844 L 725.902344 347.71875 C 733.761719 350.125 742.074219 350.773438 749.449219 350.773438 C 767.699219 350.773438 776.015625 341.972656 776.015625 323.410156 Z M 776.015625 323.410156 " fill-opacity="1" fill-rule="nonzero"/><path fill="#ffffff" d="M 95.476562 349.765625 L 95.511719 349.632812 L 63.132812 349.632812 C 48.09375 349.632812 39.128906 343.730469 36.726562 330.746094 L 103.824219 330.746094 L 103.824219 320.199219 C 103.824219 290.109375 90.703125 277.488281 60.269531 277.488281 C 31.144531 277.488281 15.292969 292.546875 15.292969 323.085938 C 15.292969 352.359375 31.953125 367.09375 63.164062 367.09375 L 85.476562 367.09375 Z M 60.238281 294.753906 C 75.761719 294.753906 83.296875 300.207031 83.296875 314.746094 L 36.53125 314.746094 C 38.285156 300.527344 45.167969 294.753906 60.238281 294.753906 Z M 60.238281 294.753906 " fill-opacity="1" fill-rule="nonzero"/><path fill="#ffffff" d="M 414.390625 349.765625 L 414.425781 349.632812 L 382.046875 349.632812 C 367.007812 349.632812 358.046875 343.730469 355.644531 330.746094 L 422.738281 330.746094 L 422.738281 320.199219 C 422.738281 290.109375 409.617188 277.488281 379.1875 277.488281 C 350.054688 277.488281 334.207031 292.546875 334.207031 323.085938 C 334.207031 352.359375 350.867188 367.09375 382.078125 367.09375 L 404.386719 367.09375 Z M 379.125 294.753906 C 394.648438 294.753906 402.179688 300.207031 402.179688 314.746094 L 355.417969 314.746094 C 357.203125 300.527344 364.085938 294.753906 379.125 294.753906 Z M 379.125 294.753906 " fill-opacity="1" fill-rule="nonzero"/></svg>